<svg width="368" height="186" viewBox="0 0 368 186" fill="none" xmlns="http://www.w3.org/2000/svg">
<path d="M368 184.5C368 135.7 348.614 88.899 314.108 54.3924C279.601 19.8857 232.8 0.500004 184 0.5C135.2 0.499996 88.3991 19.8856 53.8924 54.3923C19.3857 88.899 7.36857e-06 135.7 0 184.5L184 184.5H368Z" fill="#F1F1F1"/>
<g clip-path="url(#clip0_797_992)">
<path d="M37.6209 118.541C34.0022 140.033 53.9221 164.487 76.693 164.5C99.464 164.513 117.932 146.866 117.948 125.077C117.965 103.288 115.468 127.412 92.7873 125.434C86.2074 124.859 72.6169 105.518 51.1713 114.135C33.7618 121.13 39.1699 109.346 37.6209 118.541Z" fill="#BC2649"/>
<path d="M78.0217 164.5C77.0636 164.5 59.6808 164.328 47.7462 152.55C40.6154 145.512 37 135.874 37 123.901C37 111.929 40.6154 102.291 47.7462 95.2527C59.7609 83.3955 77.2973 83.3063 78.0384 83.303C79.3203 83.303 80.3586 84.3368 80.3552 85.6084C80.3552 86.8767 79.3137 87.9005 78.0317 87.9005H78.0284C77.8782 87.9005 68.6242 87.9666 59.574 92.4783C47.6761 98.4102 41.6437 108.983 41.6437 123.901C41.6437 134.609 44.8017 143.154 51.0278 149.297C61.6671 159.8 77.7947 159.902 78.0284 159.902C78.1185 159.902 87.4058 159.803 96.4895 155.252C108.391 149.29 114.426 138.741 114.426 123.898C114.426 112.688 110.881 104.752 104.174 100.95C103.657 100.656 103.126 100.392 102.589 100.154C101.761 102.819 100.576 104.88 99.02 106.39C93.7721 111.479 88.424 114.234 84.0508 114.234C82.8557 114.234 81.7306 114.029 80.7024 113.607C78.863 112.853 75.7717 110.703 75.7116 104.771C75.6815 101.934 77.6512 99.2227 81.2532 97.1353C84.5081 95.2493 88.6677 94.1033 92.9642 93.9084C95.054 93.8126 97.1004 93.9513 99.0634 94.308C99.6075 89.9417 99.514 84.2839 98.7529 77.5593C97.5644 67.0497 95.1608 57.5309 95.1375 57.4352C94.8237 56.2032 95.5781 54.9547 96.8233 54.6443C98.0652 54.3371 99.3304 55.0802 99.6442 56.3122C99.7444 56.7085 102.141 66.1877 103.367 77.0012C104.094 83.4186 104.248 88.9607 103.831 93.479C103.764 94.2057 103.68 94.9092 103.583 95.5829C104.588 95.976 105.556 96.4351 106.485 96.9635C112.227 100.22 119.073 107.533 119.073 123.898C119.073 144.805 107.85 154.76 98.4358 159.43C88.384 164.414 78.4624 164.497 78.0451 164.497H78.0284L78.0217 164.5ZM94.1927 98.463C90.1967 98.463 86.3709 99.4935 83.6001 101.102C81.6171 102.251 80.3452 103.675 80.3552 104.728C80.3719 106.453 80.7558 108.659 82.4784 109.362C84.8687 110.343 89.9063 108.788 95.7617 103.11C96.7532 102.149 97.5444 100.702 98.1353 98.8098C96.8233 98.572 95.498 98.463 94.1927 98.463Z" fill="black"/>
<path d="M60.6389 44.6928C60.6389 44.6928 66.6379 56.8638 75.9419 59.833C85.2459 62.8023 97.3641 56.8043 97.3641 56.8043C97.3641 56.8043 91.1214 44.7523 82.0611 41.6641C73.0042 38.576 60.6389 44.6928 60.6389 44.6928Z" fill="#6FDD81"/>
<path d="M81.6939 62.9543C79.5173 62.9543 77.3207 62.6867 75.2275 62.0196C65.0989 58.7894 58.8128 46.232 58.5491 45.7002C57.9916 44.5674 58.459 43.2 59.5973 42.6385C60.1381 42.371 72.9474 36.1286 82.8156 39.4942C92.6437 42.8466 99.1568 55.2322 99.4272 55.7574C99.711 56.3024 99.7611 56.9398 99.5675 57.5211C99.3738 58.1024 98.9532 58.5879 98.399 58.8621C97.9784 59.0701 90.0064 62.9543 81.6906 62.9543H81.6939ZM63.9138 45.7894C65.9869 49.1946 70.6239 55.7244 76.653 57.6466C82.6787 59.5689 90.3035 57.1842 94.0425 55.7244C91.8959 52.3224 87.1788 45.8423 81.3033 43.8374C75.4245 41.8326 67.6728 44.3031 63.9138 45.7861V45.7894Z" fill="black"/>
<path d="M134.139 44.6928C134.139 44.6928 128.14 56.8638 118.836 59.833C109.532 62.8023 97.4142 56.8043 97.4142 56.8043C97.4142 56.8043 103.657 44.7523 112.717 41.6641C121.778 38.576 134.139 44.6928 134.139 44.6928Z" fill="#6FDD81"/>
<path d="M113.084 62.9543C104.769 62.9543 96.7966 59.0701 96.376 58.8621C95.8218 58.5879 95.4012 58.1057 95.2076 57.5211C95.014 56.9365 95.064 56.3024 95.3478 55.7574C95.6215 55.2322 102.131 42.8433 111.959 39.4942C121.828 36.1286 134.637 42.371 135.178 42.6385C136.316 43.2033 136.783 44.5674 136.226 45.7002C135.962 46.232 129.676 58.7894 119.548 62.0196C117.454 62.6867 115.254 62.9543 113.081 62.9543H113.084ZM100.733 55.7244C104.472 57.1842 112.1 59.5689 118.125 57.6466C124.154 55.7244 128.791 49.1913 130.865 45.7894C127.102 44.3064 119.351 41.8359 113.475 43.8407C107.58 45.8489 102.872 52.3257 100.733 55.7244Z" fill="black"/>
<path d="M69.9062 153.105C59.0665 153.105 53.9121 147.408 51.4985 142.632C48.9346 137.559 48.9046 132.538 48.9046 132.33C48.9046 131.432 49.6424 130.702 50.5504 130.702C51.4584 130.702 52.1929 131.429 52.1962 132.327C52.1962 132.41 52.2496 136.898 54.4897 141.271C57.4074 146.965 62.5952 149.852 69.9062 149.852C70.8142 149.852 71.552 150.582 71.552 151.48C71.552 152.379 70.8142 153.108 69.9062 153.108V153.105Z" fill="white"/>
<path d="M187.102 109.339L186.942 108.913C185.954 109.092 183.854 109.567 180.643 110.34C177.435 111.113 174.443 111.806 171.673 112.421C168.905 113.035 167.142 113.342 166.385 113.342C165.433 113.342 164.585 113.019 163.847 112.368C163.11 111.717 162.742 110.931 162.742 110.006C162.742 108.708 163.51 107.506 165.049 106.403C166.588 105.3 168.555 104.388 170.955 103.668C173.355 102.948 176.133 102.304 179.291 101.733C182.445 101.165 185.527 100.722 188.528 100.412C191.529 100.101 194.524 99.8469 197.508 99.652C200.493 99.4572 202.893 99.3284 204.709 99.2656C206.525 99.2029 207.947 99.1731 208.972 99.1731C209.189 99.1731 209.63 99.1632 210.294 99.1467C210.958 99.1302 211.549 99.1236 212.06 99.1335C212.571 99.1434 213.228 99.15 214.03 99.1599C214.831 99.1698 215.545 99.2095 216.173 99.2788C216.8 99.3515 217.485 99.444 218.223 99.5596C218.96 99.6752 219.595 99.8403 220.125 100.052C220.656 100.266 221.154 100.514 221.621 100.798C222.088 101.082 222.442 101.439 222.686 101.865C222.93 102.291 223.05 102.763 223.05 103.279C223.05 104.078 222.743 104.808 222.132 105.465C221.521 106.122 220.81 106.453 220.002 106.453C219.551 106.453 218.967 106.271 218.249 105.904C217.528 105.541 216.884 105.356 216.306 105.356C214.617 105.356 212.567 105.468 210.157 105.69C207.747 105.911 205.904 106.112 204.629 106.291C203.354 106.469 201.3 106.753 198.48 107.146C197.401 107.305 195.525 109.726 192.854 114.406C190.184 119.086 187.526 124.361 184.882 130.23C182.238 136.102 179.892 141.839 177.842 147.441C175.792 153.046 174.767 156.771 174.767 158.621C174.767 159.156 175.014 159.704 175.508 160.276C176.002 160.844 176.249 161.369 176.249 161.851C176.249 162.545 175.969 163.159 175.415 163.691C174.857 164.226 174.22 164.49 173.499 164.49C170.227 164.49 168.591 162.211 168.591 157.66C168.591 154.261 169.576 149.214 171.546 142.516C173.515 135.818 175.415 130.283 177.251 125.903C178.403 123.145 179.738 120.529 181.257 118.059C182.776 115.585 184.722 112.678 187.096 109.333L187.102 109.339Z" fill="black"/>
<path d="M201.073 122.528C201.2 122.349 201.401 122.055 201.681 121.646C201.958 121.236 202.192 120.912 202.382 120.671C202.572 120.43 202.809 120.159 203.097 119.859C203.384 119.555 203.694 119.32 204.028 119.152C204.362 118.984 204.726 118.871 205.12 118.818C205.891 118.749 206.608 118.931 207.263 119.367C207.92 119.803 208.445 120.384 208.842 121.114C209.236 121.844 209.556 122.561 209.8 123.261C210.044 123.964 210.207 124.635 210.297 125.275C210.351 125.774 210.204 126.2 209.853 126.557C209.503 126.914 209.049 127.135 208.491 127.224C208.007 127.277 207.533 127.188 207.076 126.957C206.618 126.725 206.281 126.494 206.064 126.263C205.847 126.032 205.534 125.659 205.12 125.143C204.812 124.539 204.358 124.311 203.758 124.463C203.153 124.615 202.539 125.1 201.911 125.916C200.87 127.234 199.989 128.786 199.267 130.573C198.55 132.36 198.026 134.025 197.702 135.564C197.378 137.103 196.961 138.979 196.447 141.195C195.932 143.411 195.398 145.317 194.841 146.919C194.681 147.434 194.337 147.867 193.816 148.214C193.295 148.561 192.711 148.762 192.063 148.815C191.145 148.921 190.354 148.736 189.69 148.253C189.025 147.774 188.638 147.124 188.531 146.305C188.388 145.221 189.409 140.931 191.593 133.443C193.776 125.953 195.195 121.639 195.842 120.5C196.256 119.664 196.994 119.192 198.052 119.086C198.61 119.017 199.087 119.069 199.481 119.245C199.875 119.423 200.179 119.707 200.386 120.1C200.593 120.493 200.74 120.866 200.83 121.22C200.92 121.576 201 122.012 201.073 122.528Z" fill="black"/>
<path d="M212.658 129.444C213.592 127.29 214.734 126.213 216.083 126.213C216.927 126.213 217.625 126.504 218.173 127.082C218.72 127.66 218.994 128.36 218.994 129.176C218.994 129.638 218.316 132.264 216.957 137.05C215.599 141.836 214.787 144.531 214.517 145.135C214.14 146.007 213.419 146.443 212.36 146.443C211.048 146.443 210.294 145.733 210.094 144.31C209.807 142.318 209.94 139.854 210.498 136.918C211.055 133.982 211.773 131.491 212.654 129.447L212.658 129.444Z" fill="black"/>
<path d="M221.601 116.629C222.142 117.19 222.409 117.897 222.409 118.749C222.409 119.601 221.965 120.625 221.074 121.817C220.182 123.01 219.334 123.604 218.523 123.604C217.966 123.604 217.431 123.403 216.917 123.003C216.403 122.604 216.149 122.144 216.149 121.629C216.149 121.025 216.203 120.41 216.31 119.789C216.417 119.169 216.593 118.544 216.837 117.92C217.081 117.299 217.431 116.787 217.889 116.384C218.346 115.985 218.89 115.783 219.521 115.783C220.366 115.783 221.06 116.064 221.598 116.625L221.601 116.629Z" fill="black"/>
<path d="M230.661 133.523L229.717 138.114C231.012 136.869 232.808 134.533 235.111 131.108C237.411 127.683 239.768 124.113 242.179 120.394C244.589 116.675 246.395 114.089 247.6 112.629C248.355 111.757 249.146 111.321 249.974 111.321C250.638 111.321 251.216 111.556 251.7 112.028C252.184 112.5 252.427 113.065 252.427 113.722C252.427 114.753 250.665 117.897 247.139 123.155C243.614 128.413 239.929 133.579 236.079 138.659C232.23 143.738 229.793 146.688 228.768 147.504C227.744 148.339 226.672 148.759 225.56 148.759C224.372 148.759 223.347 148.359 222.486 147.556C221.621 146.757 221.19 145.776 221.19 144.62C221.19 142.094 221.945 137.463 223.457 130.732C224.966 123.997 226.261 119.786 227.34 118.095C227.934 117.118 228.778 116.629 229.873 116.629C232.013 116.629 233.082 117.9 233.082 120.443C233.082 121.636 232.948 122.973 232.678 124.46C232.407 125.946 232.043 127.627 231.586 129.503C231.129 131.379 230.818 132.72 230.655 133.519L230.661 133.523Z" fill="black"/>
<path d="M247.39 129.513C248.668 127.541 249.977 126.666 251.306 126.887C252.14 127.026 252.778 127.426 253.222 128.083C253.666 128.743 253.819 129.477 253.686 130.283C253.609 130.738 252.501 133.216 250.368 137.714C248.231 142.212 246.979 144.739 246.615 145.291C246.098 146.09 245.317 146.4 244.268 146.229C242.973 146.014 242.349 145.192 242.389 143.755C242.436 141.743 242.98 139.336 244.018 136.528C245.056 133.724 246.181 131.386 247.39 129.51V129.513ZM259.057 118.221C259.495 118.861 259.645 119.601 259.501 120.443C259.358 121.286 258.75 122.224 257.672 123.254C256.597 124.285 255.659 124.734 254.861 124.602C254.31 124.509 253.816 124.225 253.379 123.75C252.941 123.271 252.765 122.779 252.848 122.27C252.948 121.672 253.105 121.078 253.315 120.48C253.526 119.882 253.803 119.297 254.147 118.723C254.491 118.148 254.921 117.702 255.439 117.382C255.956 117.061 256.527 116.952 257.148 117.055C257.982 117.193 258.617 117.583 259.057 118.224V118.221Z" fill="black"/>
<path d="M281.775 119.647C281.955 119.469 282.246 119.149 282.653 118.686C283.057 118.224 283.384 117.874 283.638 117.633C283.888 117.392 284.235 117.157 284.676 116.926C285.117 116.695 285.561 116.579 286.011 116.579C286.659 116.579 287.213 116.797 287.67 117.233C288.128 117.669 288.358 118.197 288.358 118.822C288.358 119.126 287.917 120.1 287.036 121.745C286.155 123.39 285.183 125.193 284.122 127.148C283.06 129.107 282.089 131.283 281.207 133.685C280.326 136.086 279.885 138.107 279.885 139.742C279.885 140.366 280.132 141 280.626 141.651C281.121 142.302 281.368 142.866 281.368 143.345C281.368 143.933 281.137 144.425 280.68 144.825C280.223 145.225 279.695 145.426 279.101 145.426C278.687 145.426 278.296 145.37 277.929 145.254C277.562 145.139 277.241 144.997 276.971 144.828C276.701 144.66 276.454 144.419 276.23 144.108C276.006 143.798 275.816 143.517 275.662 143.266C275.509 143.018 275.365 142.672 275.232 142.226C275.098 141.78 274.998 141.426 274.935 141.159C274.871 140.891 274.804 140.502 274.731 139.983C274.657 139.468 274.611 139.101 274.584 138.89C274.557 138.678 274.524 138.312 274.491 137.797C274.454 137.281 274.427 136.971 274.41 136.862C274.193 137.077 273.719 137.555 272.982 138.302C272.244 139.048 271.656 139.636 271.216 140.062C270.775 140.488 270.167 141.06 269.396 141.77C268.622 142.48 267.934 143.055 267.333 143.491C266.729 143.927 266.068 144.372 265.35 144.825C264.629 145.277 263.928 145.611 263.247 145.826C262.563 146.04 261.908 146.146 261.277 146.146C259.425 146.146 258.006 145.489 257.014 144.171C256.026 142.853 255.532 141.255 255.532 139.369C255.532 137.483 255.899 135.62 256.637 133.513C257.375 131.406 258.403 129.364 259.725 127.389C261.047 125.414 262.529 123.614 264.175 121.986C265.821 120.358 267.63 119.05 269.61 118.062C271.586 117.075 273.522 116.582 275.409 116.582C277.909 116.582 280.029 117.606 281.775 119.651V119.647ZM275.031 123.304C273.916 123.304 272.785 123.637 271.633 124.304C270.481 124.972 269.416 125.857 268.438 126.96C267.457 128.063 266.562 129.269 265.754 130.577C264.946 131.884 264.242 133.232 263.651 134.619C262.339 137.625 262.005 139.26 262.653 139.517C263.3 139.775 264.829 138.82 267.24 136.647C269.794 134.424 271.977 132.235 273.793 130.081C275.609 127.928 276.517 126.177 276.517 124.823C276.517 124.113 276.437 123.68 276.273 123.528C276.113 123.376 275.699 123.3 275.031 123.3V123.304Z" fill="black"/>
<path d="M185.6 49.3663C181.761 52.4017 178.303 56.3717 175.225 61.2764C172.147 66.1811 169.85 71.2377 168.338 76.4463C166.822 81.6549 166.274 86.3251 166.688 90.457C166.749 90.9062 166.852 91.4412 166.999 92.0588C167.146 92.6765 167.349 93.3899 167.606 94.2024C167.864 95.0149 168.194 95.6854 168.601 96.2138C169.005 96.7423 169.446 96.9867 169.923 96.947C170.377 96.8876 170.938 96.5936 171.599 96.0652C172.263 95.5367 172.791 95.0281 173.188 94.5393C177.344 89.7799 180.262 84.5713 181.945 78.9135C182.182 78.1308 182.419 77.4438 182.656 76.8559C182.893 76.268 183.223 75.6041 183.651 74.8577C184.075 74.1145 184.595 73.52 185.21 73.0807C185.824 72.6415 186.495 72.3805 187.229 72.3013C188.121 72.2022 188.882 72.3442 189.516 72.7273C190.15 73.1105 190.504 73.6818 190.584 74.4448C190.761 76.1689 190.224 78.5568 188.965 81.612C187.707 84.6671 186.101 87.676 184.141 90.6452C182.182 93.6112 179.942 96.2402 177.418 98.5324C174.894 100.825 172.594 102.076 170.514 102.291C168.989 102.446 167.593 102.202 166.328 101.558C165.063 100.91 164.041 100.015 163.27 98.8693C162.499 97.7232 161.878 96.5144 161.414 95.2428C160.95 93.9712 160.656 92.6963 160.539 91.4247C160.362 90.2291 160.342 88.9079 160.479 87.458C160.973 79.6435 162.676 72.3739 165.587 65.6493C168.498 58.9215 172.711 52.438 178.236 46.189C179.898 44.2899 181.825 42.5955 184.011 41.1059C186.198 39.6197 188.371 38.7675 190.528 38.5496C193.238 38.2952 195.512 38.893 197.341 40.3397C199.171 41.7896 200.226 43.7383 200.503 46.1857C200.623 47.3813 200.463 48.9139 200.029 50.7833C199.591 52.6527 198.97 54.5122 198.159 56.3651C197.348 58.2147 196.29 59.8396 194.981 61.2401C193.676 62.6405 192.31 63.4199 190.885 63.5752C190.094 63.6346 189.399 63.486 188.805 63.1359C188.211 62.7825 187.874 62.2639 187.797 61.5802C187.757 61.1674 188.011 60.1765 188.555 58.5978C189.099 57.0223 189.633 55.2751 190.157 53.3562C190.681 51.4372 190.885 49.8717 190.765 48.6562C190.725 48.108 190.634 47.6819 190.498 47.378C190.357 47.0742 190.18 46.8892 189.963 46.8199C189.746 46.7505 189.513 46.7406 189.266 46.7901C189.019 46.8397 188.725 46.9751 188.391 47.1997C188.054 47.4243 187.743 47.6456 187.456 47.8603C187.169 48.0749 186.839 48.3392 186.461 48.6529C186.341 48.7718 186.245 48.8577 186.164 48.9172C186.084 48.9766 185.991 49.0493 185.881 49.1385C185.77 49.2276 185.677 49.3003 185.597 49.3597L185.6 49.3663Z" fill="#BC2649"/>
<path d="M203.561 70.8975C204.512 70.0553 205.19 69.474 205.594 69.1503C205.998 68.8266 206.649 68.3576 207.537 67.74C208.428 67.1224 209.269 66.6864 210.06 66.4321C210.852 66.1778 211.663 66.0489 212.494 66.0489C214.277 66.0489 215.612 66.6368 216.503 67.8127C217.395 68.9885 217.839 70.4847 217.839 72.3078C217.839 73.9725 217.308 76.4892 216.25 79.8581C215.191 83.227 214.661 85.724 214.661 87.3489C214.661 87.8774 214.948 88.4125 215.522 88.9508C216.096 89.4892 216.383 89.9945 216.383 90.4635C216.383 91.1505 216.046 91.7318 215.375 92.2107C214.701 92.6896 214.02 92.9307 213.325 92.9307C212.494 92.9307 211.773 92.6896 211.159 92.2107C210.544 91.7318 210.084 91.1043 209.777 90.3314C209.469 89.5585 209.246 88.789 209.109 88.026C208.969 87.2631 208.902 86.51 208.902 85.7636C208.902 83.7852 209.426 80.9183 210.474 77.1564C210.852 75.7263 211.072 74.6198 211.142 73.837C211.212 73.0543 211.119 72.5555 210.858 72.3375C210.601 72.1229 210.147 72.2682 209.493 72.7768C208.839 73.2855 207.967 74.1673 206.879 75.4191C203.911 78.8673 201.237 84.1023 198.863 91.134C198.409 92.6038 197.578 93.337 196.37 93.337C195.916 93.337 195.512 93.2313 195.168 93.0133C194.821 92.7986 194.534 92.5377 194.307 92.2338C194.08 91.93 193.886 91.5204 193.729 90.9986C193.572 90.48 193.459 90.0143 193.389 89.6048C193.318 89.1919 193.258 88.6734 193.212 88.0492C193.162 87.4216 193.138 86.9526 193.138 86.6388V85.1129L193.228 83.5573C194.16 73.8436 197.007 64.7212 201.778 56.1834C202.332 55.1859 203.08 54.0629 204.018 52.8211C204.959 51.5792 206.081 50.3935 207.386 49.2672C208.692 48.1409 209.82 47.5795 210.771 47.5795C211.543 47.5795 212.247 47.8503 212.878 48.3887C213.512 48.927 213.829 49.5777 213.829 50.3406C213.829 50.988 213.502 51.7113 212.851 52.5139C210.715 55.1397 208.922 57.9372 207.476 60.913C206.031 63.8889 204.726 67.2181 203.557 70.9008L203.561 70.8975Z" fill="#BC2649"/>
<path d="M227.787 80.413C227.787 80.4328 227.754 80.5715 227.684 80.8226C227.613 81.0769 227.58 81.2618 227.58 81.3807C227.58 81.8134 227.61 82.1734 227.67 82.4674C227.73 82.7613 227.874 83.0256 228.101 83.2601C228.328 83.4946 228.652 83.6135 229.066 83.6135C230.274 83.6135 231.583 83.3327 232.998 82.7778C234.414 82.2197 235.729 81.5393 236.947 80.7367C238.166 79.9341 239.301 79.1249 240.363 78.3124C241.421 77.4999 242.316 76.8129 243.05 76.2547C243.781 75.6966 244.248 75.4158 244.445 75.4158C245.04 75.4158 245.604 75.6503 246.138 76.1193C246.672 76.5883 246.939 77.1168 246.939 77.7047C246.939 79.4089 245.767 81.2982 243.421 83.3724C241.074 85.4465 238.443 87.1673 235.522 88.5281C232.601 89.8889 230.241 90.5692 228.441 90.5692C225.968 90.5692 223.928 89.7799 222.325 88.2044C220.723 86.629 219.922 84.6274 219.922 82.1965C219.922 80.238 220.282 78.1473 221.007 75.9244C221.728 73.7016 222.753 71.5614 224.078 69.507C225.403 67.4494 226.909 65.58 228.592 63.8955C230.274 62.2111 232.16 60.8602 234.247 59.8429C236.333 58.8257 238.42 58.317 240.496 58.317C242.356 58.317 243.821 58.8521 244.889 59.9189C245.958 60.9857 246.492 62.439 246.492 64.2819C246.492 66.1249 245.864 67.9844 244.606 70.0388C243.347 72.0965 241.801 73.9196 239.959 75.5182C238.119 77.1135 236.079 78.3917 233.843 79.3528C231.606 80.3139 229.586 80.664 227.787 80.4097V80.413ZM235.505 71.5713C237.048 70.554 238.326 69.4575 239.334 68.2817C240.343 67.1059 240.85 65.9796 240.85 64.9029C240.85 63.8262 240.029 63.7865 238.386 64.6684C238.286 64.7278 238.219 64.7675 238.179 64.7873C236.2 65.8244 234.477 67.2842 233.015 69.1635C231.232 71.5317 230.501 72.9684 230.818 73.4671C231.135 73.9659 232.698 73.335 235.509 71.5713H235.505Z" fill="#BC2649"/>
<path d="M261.571 65.5502C261.708 65.3553 261.932 65.0316 262.239 64.5824C262.546 64.1332 262.803 63.7732 263.01 63.509C263.217 63.2448 263.481 62.9475 263.798 62.6139C264.115 62.2803 264.455 62.0227 264.823 61.8345C265.19 61.6495 265.591 61.5273 266.025 61.4678C266.876 61.3886 267.664 61.5901 268.385 62.069C269.106 62.5479 269.687 63.1886 270.121 63.9945C270.555 64.7971 270.909 65.5865 271.176 66.3593C271.443 67.1322 271.626 67.872 271.726 68.5756C271.787 69.1238 271.623 69.5928 271.236 69.9859C270.848 70.3789 270.351 70.6233 269.737 70.7191C269.203 70.7785 268.682 70.6795 268.178 70.4251C267.674 70.1708 267.303 69.9165 267.063 69.6622C266.826 69.4079 266.479 68.9983 266.025 68.4302C265.687 67.7664 265.19 67.5153 264.526 67.6805C263.861 67.8456 263.184 68.3807 262.493 69.2824C261.344 70.7323 260.376 72.4399 259.581 74.4084C258.79 76.3769 258.216 78.2066 257.859 79.901C257.502 81.5953 257.041 83.6596 256.477 86.0971C255.913 88.5346 255.325 90.6352 254.711 92.3989C254.534 92.967 254.157 93.4426 253.582 93.8224C253.008 94.2056 252.364 94.4236 251.653 94.483C250.645 94.6019 249.773 94.3938 249.039 93.8654C248.308 93.3369 247.881 92.6235 247.764 91.7218C247.607 90.5262 248.729 85.8098 251.132 77.5659C253.536 69.322 255.095 64.5725 255.809 63.3207C256.263 62.3992 257.074 61.8807 258.243 61.7651C258.857 61.6858 259.381 61.7453 259.815 61.9402C260.249 62.135 260.583 62.4488 260.81 62.8815C261.037 63.3108 261.201 63.7237 261.301 64.1134C261.401 64.5065 261.488 64.9854 261.568 65.5535L261.571 65.5502Z" fill="#BC2649"/>
<path d="M284.165 65.5502C284.302 65.3553 284.526 65.0316 284.833 64.5824C285.14 64.1332 285.397 63.7732 285.604 63.509C285.811 63.2448 286.075 62.9475 286.392 62.6139C286.709 62.2803 287.049 62.0227 287.417 61.8345C287.784 61.6495 288.185 61.5273 288.618 61.4678C289.47 61.3886 290.258 61.5901 290.979 62.069C291.7 62.5479 292.281 63.1886 292.715 63.9945C293.149 64.7971 293.503 65.5865 293.77 66.3593C294.037 67.1322 294.22 67.872 294.32 68.5756C294.38 69.1238 294.217 69.5928 293.83 69.9859C293.442 70.3789 292.945 70.6233 292.331 70.7191C291.797 70.7785 291.276 70.6795 290.772 70.4251C290.268 70.1708 289.897 69.9165 289.657 69.6622C289.42 69.4079 289.073 68.9983 288.618 68.4302C288.281 67.7664 287.784 67.5153 287.12 67.6805C286.455 67.8456 285.778 68.3807 285.087 69.2824C283.938 70.7323 282.97 72.4399 282.175 74.4084C281.384 76.3769 280.81 78.2066 280.453 79.901C280.096 81.5953 279.635 83.6596 279.071 86.0971C278.507 88.5346 277.919 90.6352 277.305 92.3989C277.128 92.967 276.751 93.4426 276.176 93.8224C275.602 94.2056 274.958 94.4236 274.247 94.483C273.239 94.6019 272.367 94.3938 271.633 93.8654C270.902 93.3369 270.475 92.6235 270.358 91.7218C270.201 90.5262 271.322 85.8098 273.726 77.5659C276.13 69.322 277.689 64.5725 278.403 63.3207C278.857 62.3992 279.668 61.8807 280.837 61.7651C281.451 61.6858 281.975 61.7453 282.409 61.9402C282.843 62.135 283.177 62.4488 283.404 62.8815C283.631 63.3108 283.795 63.7237 283.895 64.1134C283.995 64.5065 284.082 64.9854 284.162 65.5535L284.165 65.5502Z" fill="#BC2649"/>
<path d="M299.602 108.025C302.967 104.068 305.831 99.6124 308.198 94.6614C310.561 89.7072 312.271 84.6373 313.319 79.4452C312.705 80.3667 312.147 81.1792 311.643 81.8827C311.139 82.5862 310.451 83.4648 309.58 84.5118C308.709 85.5588 307.884 86.4274 307.1 87.1111C306.318 87.7981 305.437 88.3926 304.459 88.9013C303.481 89.4099 302.543 89.6642 301.655 89.6642C300.426 89.6642 299.308 89.2646 298.3 88.4587C297.292 87.6561 296.534 86.6719 296.03 85.506C295.526 84.34 295.272 83.1609 295.272 81.9653C295.272 78.9895 295.439 76.5024 295.776 74.5042C296.053 72.9981 296.477 71.1452 297.051 68.9521C297.625 66.759 298.383 64.2786 299.321 61.5075C300.263 58.7364 301.381 56.4013 302.676 54.5022C303.972 52.6031 305.274 51.6519 306.579 51.6519C307.47 51.6519 308.261 51.9656 308.952 52.5932C309.647 53.2207 309.991 53.9737 309.991 54.8556C309.991 55.4435 309.63 56.7052 308.906 58.644C308.185 60.5827 307.303 62.9145 306.262 65.6361C305.223 68.3576 304.456 70.6597 303.962 72.539C303.508 74.2433 303.21 75.7461 303.07 77.0474C302.93 78.3487 302.937 79.3726 303.084 80.1157C303.23 80.8589 303.514 81.3477 303.928 81.5855C304.345 81.82 304.86 81.7803 305.471 81.4666C306.085 81.1528 306.806 80.5319 307.637 79.6005C308.468 78.6691 309.35 77.4801 310.281 76.0301C311.49 74.2102 312.815 71.8553 314.26 68.9653C315.706 66.0787 317.021 63.3373 318.21 60.7413C319.398 58.1485 320.079 56.6821 320.259 56.3485C320.536 55.82 321.047 54.6046 321.788 52.7055C322.529 50.8063 323.237 49.4158 323.912 48.534C324.623 47.5563 325.377 47.0642 326.168 47.0642C327.1 47.0642 327.884 47.4374 328.529 48.1806C329.173 48.9237 329.493 49.756 329.493 50.6775C329.493 52.3223 328.425 57.1015 326.288 65.0118C323.992 73.2359 322.389 78.7682 321.478 81.6086C317.539 93.8456 313.135 102.707 308.268 108.19C307.891 108.619 307.517 109.022 307.14 109.395C304.349 112.292 301.875 113.742 299.719 113.742C298.453 113.742 297.171 113.144 295.873 111.952C294.577 110.756 293.926 109.544 293.926 108.309C293.926 107.642 294.2 107.064 294.744 106.575C295.289 106.086 295.906 105.842 296.601 105.842C296.898 105.842 297.168 105.875 297.418 105.944C297.665 106.013 297.899 106.139 298.116 106.327C298.333 106.512 298.503 106.671 298.62 106.796C298.74 106.925 298.907 107.133 299.124 107.427C299.341 107.721 299.502 107.916 299.598 108.015L299.602 108.025Z" fill="#BC2649"/>
</g>
<defs>
<clipPath id="clip0_797_992">
<rect width="292.5" height="126" fill="white" transform="translate(37 38.5)"/>
</clipPath>
</defs>
</svg>
