<svg width="117" height="32" viewBox="0 0 117 32" fill="none" xmlns="http://www.w3.org/2000/svg">
<path d="M6.79167 21.561H2.69122V9.2113H0.151123V7.59047H2.69122V2.4498H6.79167V7.59047H11.0252V9.2113H6.79167V21.561Z" fill="#ED3D00"/>
<path d="M24.4524 8.82424L22.1543 12.6344C22.0575 12.3118 21.9325 11.949 21.7793 11.5458C21.6261 11.1426 21.4366 10.7676 21.2108 10.4209C20.985 10.0661 20.7149 9.77173 20.4004 9.53788C20.0859 9.29597 19.723 9.17501 19.3118 9.17501C18.9328 9.17501 18.6022 9.27178 18.3199 9.46531C18.0458 9.65884 17.8119 9.91285 17.6184 10.2273C17.4248 10.5338 17.2636 10.8845 17.1345 11.2797C17.0136 11.6667 16.9168 12.0619 16.8442 12.465C16.7797 12.8602 16.7354 13.2432 16.7112 13.6141C16.687 13.977 16.6749 14.2915 16.6749 14.5576V21.561H12.5745V7.59047H14.1469L15.804 10.8442C16.0298 10.3201 16.2878 9.84028 16.5781 9.40483C16.8684 8.96132 17.2031 8.58232 17.5821 8.26783C17.9611 7.94528 18.3885 7.6953 18.8642 7.5179C19.3481 7.3405 19.8924 7.25179 20.4972 7.25179C20.8116 7.25179 21.1624 7.28002 21.5495 7.33646C21.9365 7.38485 22.3155 7.47355 22.6865 7.60257C23.0574 7.72353 23.4001 7.8848 23.7146 8.0864C24.0291 8.28799 24.275 8.53394 24.4524 8.82424Z" fill="#ED3D00"/>
<path d="M24.8406 15.5857C24.8406 14.9487 24.893 14.2875 24.9978 13.602C25.1107 12.9166 25.2679 12.2312 25.4695 11.5458C25.6792 10.8603 25.9292 10.183 26.2195 9.51369C26.5098 8.8444 26.8364 8.20332 27.1992 7.59047H30.1869C29.9853 8.19526 29.8038 8.82827 29.6426 9.4895C29.4893 10.1427 29.3563 10.7999 29.2434 11.4611C29.1386 12.1143 29.0539 12.7553 28.9894 13.3843C28.9329 14.0133 28.9047 14.5979 28.9047 15.1382C28.9047 15.4527 28.9168 15.7914 28.941 16.1542C28.9733 16.509 29.0257 16.8679 29.0983 17.2308C29.1708 17.5856 29.2716 17.9283 29.4006 18.2589C29.5377 18.5895 29.7111 18.8838 29.9208 19.1419C30.1304 19.3919 30.3844 19.5934 30.6828 19.7467C30.9892 19.8918 31.3481 19.9644 31.7593 19.9644C32.1625 19.9644 32.5213 19.8757 32.8358 19.6983C33.1584 19.5128 33.4406 19.2749 33.6825 18.9846C33.9244 18.6863 34.1301 18.3476 34.2994 17.9686C34.4687 17.5896 34.6058 17.2025 34.7107 16.8074C34.8236 16.4042 34.9042 16.0131 34.9526 15.6341C35.009 15.2471 35.0372 14.9003 35.0372 14.5939V7.59047H39.1256V21.561H37.5531L35.6783 18.3073C35.4445 18.8475 35.1582 19.3394 34.8195 19.7829C34.4889 20.2184 34.1099 20.5934 33.6825 20.9078C33.2551 21.2223 32.7794 21.4642 32.2552 21.6336C31.7391 21.8029 31.1787 21.8876 30.5739 21.8876C29.6063 21.8876 28.7636 21.7304 28.0459 21.4159C27.3282 21.1014 26.7315 20.6659 26.2558 20.1095C25.78 19.5531 25.4252 18.8919 25.1913 18.1258C24.9575 17.3517 24.8406 16.505 24.8406 15.5857Z" fill="#ED3D00"/>
<path d="M55.2381 1.84501L52.9278 5.66726C52.9037 5.36083 52.8472 5.01006 52.7585 4.61493C52.6698 4.21174 52.5206 3.83274 52.311 3.47793C52.1094 3.12313 51.8271 2.82477 51.4643 2.58285C51.1095 2.33287 50.6538 2.20789 50.0974 2.20789C49.5249 2.20789 49.0653 2.32078 48.7185 2.54656C48.3718 2.77235 48.1057 3.11103 47.9202 3.5626C47.7348 4.01418 47.6098 4.57461 47.5453 5.24391C47.4807 5.9132 47.4485 6.69136 47.4485 7.57838H51.682V9.1992H47.4485V21.561H43.348V9.1992H40.8079V7.57838H43.348C43.348 6.29623 43.4851 5.19552 43.7593 4.27625C44.0335 3.35698 44.4488 2.60301 45.0052 2.01435C45.5616 1.41763 46.2591 0.982187 47.0977 0.708018C47.9444 0.425785 48.9322 0.284668 50.0612 0.284668C50.7385 0.284668 51.3433 0.333051 51.8755 0.429816C52.4158 0.518518 52.8916 0.639475 53.3028 0.792688C53.7221 0.937836 54.089 1.10314 54.4035 1.28861C54.718 1.47408 54.9962 1.65955 55.2381 1.84501Z" fill="#ED3D00"/>
<path d="M64.5376 21.5601H60.4492V1.15466H62.0217L64.5376 5.40026V21.5601Z" fill="#ED3D00"/>
<path d="M70.9614 14.9317C71.4614 15.0446 71.9614 15.1333 72.4613 15.1978C72.9613 15.2623 73.4653 15.2945 73.9733 15.2945C74.5055 15.2945 74.9974 15.2462 75.4489 15.1494C75.9086 15.0446 76.3037 14.8752 76.6343 14.6414C76.973 14.3995 77.2391 14.0809 77.4326 13.6858C77.6262 13.2907 77.7229 12.7988 77.7229 12.2101C77.7229 11.7344 77.6584 11.2989 77.5294 10.9038C77.4004 10.5087 77.2069 10.17 76.9488 9.88776C76.6988 9.60553 76.3884 9.38781 76.0174 9.23459C75.6465 9.07332 75.2151 8.99268 74.7232 8.99268C74.2636 8.99268 73.8483 9.07735 73.4773 9.24669C73.1145 9.41603 72.7919 9.64585 72.5097 9.93615C72.2355 10.2184 71.9976 10.549 71.796 10.928C71.6025 11.307 71.4412 11.7021 71.3122 12.1134C71.1832 12.5246 71.0905 12.9399 71.034 13.3592C70.9776 13.7785 70.9493 14.1737 70.9493 14.5446C70.9493 14.6091 70.9493 14.6736 70.9493 14.7381C70.9493 14.8027 70.9534 14.8672 70.9614 14.9317ZM81.0372 12.1739C81.0372 12.7464 80.9444 13.2584 80.759 13.71C80.5735 14.1535 80.3195 14.5446 79.9969 14.8833C79.6824 15.222 79.3155 15.5082 78.8962 15.7421C78.4769 15.9759 78.0294 16.1695 77.5536 16.3227C77.0778 16.4678 76.5859 16.5727 76.0779 16.6372C75.578 16.7017 75.0901 16.7339 74.6143 16.7339C74.0096 16.7339 73.4128 16.6936 72.8242 16.613C72.2355 16.5243 71.6549 16.3872 71.0824 16.2017C71.1711 16.7339 71.3122 17.242 71.5057 17.7258C71.6993 18.2015 71.9573 18.6209 72.2799 18.9837C72.6024 19.3385 72.9976 19.6208 73.4653 19.8304C73.941 20.0401 74.5014 20.1449 75.1466 20.1449C75.5739 20.1449 75.9812 20.0804 76.3682 19.9514C76.7553 19.8224 77.1101 19.6409 77.4326 19.4071C77.7552 19.1732 78.0374 18.895 78.2793 18.5725C78.5293 18.2499 78.7309 17.8911 78.8841 17.496L80.6501 18.1491C80.384 18.7862 80.0171 19.3385 79.5494 19.8062C79.0898 20.2659 78.5656 20.6489 77.9769 20.9553C77.3964 21.2537 76.7754 21.4754 76.1142 21.6206C75.461 21.7657 74.8119 21.8383 74.1668 21.8383C73.1024 21.8383 72.1186 21.6609 71.2154 21.3061C70.3123 20.9432 69.5341 20.4392 68.881 19.7941C68.2278 19.149 67.7158 18.3789 67.3448 17.4839C66.9739 16.5888 66.7884 15.609 66.7884 14.5446C66.7884 13.4802 66.9739 12.5004 67.3448 11.6054C67.7158 10.7103 68.2278 9.94018 68.881 9.29507C69.5341 8.64997 70.3123 8.15001 71.2154 7.79521C72.1186 7.43233 73.1024 7.2509 74.1668 7.2509C74.6829 7.2509 75.2111 7.28719 75.7513 7.35976C76.2916 7.43233 76.8158 7.54926 77.3238 7.71054C77.8318 7.86375 78.3116 8.06534 78.7632 8.31532C79.2147 8.5653 79.6058 8.87575 79.9365 9.24669C80.2751 9.60956 80.5412 10.0329 80.7348 10.5167C80.9364 11.0006 81.0372 11.5529 81.0372 12.1739Z" fill="#ED3D00"/>
<path d="M45.2407 30.0006L47.551 26.1783C47.5752 26.4847 47.6316 26.8355 47.7203 27.2307C47.809 27.6338 47.9582 28.0128 48.1679 28.3676C48.3695 28.7225 48.6517 29.0208 49.0146 29.2627C49.3694 29.5127 49.825 29.6377 50.3814 29.6377C50.9539 29.6377 51.4136 29.5248 51.7603 29.299C52.107 29.0732 52.3732 28.7346 52.5586 28.283C52.7441 27.8314 52.8691 27.271 52.9336 26.6017C52.9981 25.9324 53.0304 25.1542 53.0304 24.2672L48.7969 24.2672L48.7969 22.6464L53.0304 22.6464L53.0304 10.2846L57.1308 10.2846L57.1308 22.6464L59.6709 22.6464L59.6709 24.2672L57.1308 24.2672C57.1308 25.5493 56.9937 26.6501 56.7195 27.5693C56.4454 28.4886 56.0301 29.2426 55.4737 29.8312C54.9173 30.4279 54.2198 30.8634 53.3811 31.1376C52.5344 31.4198 51.5466 31.5609 50.4177 31.5609C49.7403 31.5609 49.1355 31.5125 48.6033 31.4158C48.0631 31.3271 47.5873 31.2061 47.176 31.0529C46.7567 30.9077 46.3898 30.7424 46.0753 30.557C45.7608 30.3715 45.4826 30.186 45.2407 30.0006Z" fill="#ED3D00"/>
<path d="M84.2013 0.70256C84.2013 0.519867 84.5971 0.306726 84.7798 0.124031C85.3583 -0.058662 86.8503 -0.0586623 87.4288 0.306726C87.7942 0.489419 88.1901 0.885255 88.3728 1.46378C88.7381 2.22501 88.7381 2.98623 88.7381 9.6241C88.7381 16.262 88.9513 17.2059 89.134 18.7283C89.4994 20.2508 89.4994 20.4335 89.3167 20.7989C87.7942 22.1386 85.541 21.1947 84.9625 20.6162C84.0186 19.4895 83.8054 18.5152 83.8054 12.6385C83.8054 6.5792 84.0186 0.885255 84.2013 0.70256Z" fill="url(#paint0_linear_3870_510)"/>
<path d="M90.5403 3.07758C90.6926 1.67693 91.8801 1.64648 92.6109 1.58558C93.4939 1.52468 93.6461 1.43334 93.9811 1.76827C94.316 2.25546 94.2855 3.41252 93.8897 3.99105C93.1894 4.60002 91.5756 4.81317 90.7535 4.20419C90.449 4.08239 90.449 3.59521 90.5403 3.07758ZM90.449 9.98948C90.5403 7.30998 91.0884 7.15773 91.5147 6.94459C92.0628 6.51831 93.3112 6.48786 93.6461 6.82279C94.4682 7.43177 94.5291 8.95422 94.4378 13.3998C94.3769 14.1001 94.4073 16.0184 94.5291 17.8149C94.6205 20.6466 94.6205 20.7684 94.3464 21.1642C91.8192 22.504 91.058 21.1947 90.6926 20.1899C90.1445 19.0328 89.9618 14.9831 90.449 9.98948Z" fill="url(#paint1_linear_3870_510)"/>
<path d="M96.2692 11.2683C95.4776 7.97985 95.4776 7.18818 96.2692 6.88369C96.726 6.5792 98.4616 6.5792 98.766 6.73145C98.9183 6.88369 99.2228 7.21863 99.375 7.52312C99.8318 8.1321 101.111 11.9078 101.415 13.6129C101.567 14.4046 101.72 15.0136 101.72 15.0136C101.872 15.0136 102.024 14.3741 102.176 13.7651C102.785 11.5728 103.912 7.82761 104.216 7.21863C105.313 5.78753 106.561 6.88369 106.561 7.97985C106.561 8.77153 104.369 17.3581 104.216 18.1498C103.76 20.6466 103.76 20.7988 102.816 21.2556C99.984 22.0473 98.5834 21.2556 98.2789 20.6466C97.9744 19.7027 96.4215 12.2123 96.2692 11.2683Z" fill="url(#paint2_linear_3870_510)"/>
<path d="M108.321 7.97985C108.474 7.82761 109.113 7.34043 109.631 7.18818C112.919 5.54394 114.228 6.88369 114.868 7.70581C116.208 9.35005 115.172 11.1465 112.523 11.9687C111.701 12.3036 111.305 12.2427 111.305 13.5825C111.458 15.2267 111.823 16.4447 112.462 17.419C112.98 18.2411 113.498 18.2107 114.381 18.1193C115.172 17.6931 116.055 16.9623 116.055 18.2716C116.055 19.4591 114.381 20.5248 112.736 20.5248C110.605 20.5248 109.448 20.1899 108.474 19.0328C105.124 15.5312 107.499 8.71063 108.321 7.97985ZM113.163 9.19781C113.163 8.68018 113.163 8.16255 113.01 8.0103C112.493 7.37088 111.458 7.52312 111.123 8.34524C110.97 8.68018 110.818 10.4462 110.97 10.9638C111.123 11.1161 111.549 11.1465 111.884 10.9943C112.858 10.4767 113.163 10.0199 113.163 9.19781Z" fill="url(#paint3_linear_3870_510)"/>
<defs>
<linearGradient id="paint0_linear_3870_510" x1="99.9304" y1="0.00402832" x2="99.9304" y2="21.7346" gradientUnits="userSpaceOnUse">
<stop offset="0.208333" stop-color="#8B6459"/>
<stop offset="0.770833" stop-color="#623B39"/>
</linearGradient>
<linearGradient id="paint1_linear_3870_510" x1="99.9304" y1="0.00402832" x2="99.9304" y2="21.7346" gradientUnits="userSpaceOnUse">
<stop offset="0.208333" stop-color="#8B6459"/>
<stop offset="0.770833" stop-color="#623B39"/>
</linearGradient>
<linearGradient id="paint2_linear_3870_510" x1="99.9304" y1="0.00402832" x2="99.9304" y2="21.7346" gradientUnits="userSpaceOnUse">
<stop offset="0.208333" stop-color="#8B6459"/>
<stop offset="0.770833" stop-color="#623B39"/>
</linearGradient>
<linearGradient id="paint3_linear_3870_510" x1="99.9304" y1="0.00402832" x2="99.9304" y2="21.7346" gradientUnits="userSpaceOnUse">
<stop offset="0.208333" stop-color="#8B6459"/>
<stop offset="0.770833" stop-color="#623B39"/>
</linearGradient>
</defs>
</svg>
